<?xml version="1.0" encoding="UTF-8"?>
<svg id="Layer_2" data-name="Layer 2" xmlns="http://www.w3.org/2000/svg" xmlns:xlink="http://www.w3.org/1999/xlink" viewBox="0 0 249.01 81.36">
  <defs>
    <style>
      .cls-1 {
        fill: #231f20;
      }

      .cls-2 {
        fill: url(#linear-gradient);
      }
    </style>
    <linearGradient id="linear-gradient" x1="-.04" y1="5.31" x2="54.76" y2="60.1" gradientUnits="userSpaceOnUse">
      <stop offset="0" stop-color="#3ce5a7"/>
      <stop offset=".04" stop-color="#3adeab"/>
      <stop offset=".37" stop-color="#28a0ce"/>
      <stop offset=".65" stop-color="#1b73e8"/>
      <stop offset=".87" stop-color="#1357f9"/>
      <stop offset="1" stop-color="#114dff"/>
    </linearGradient>
  </defs>
  <g id="Layer_1-2" data-name="Layer 1">
    <path class="cls-2" d="M30.6,10.67h22.4s.04-.02.04-.04V.04s-.02-.04-.04-.04h-22.23C14.37,0,.48,12.83.01,29.22c-.11,4.04.58,7.91,1.92,11.46-1.25,3.3-1.93,6.87-1.93,10.6,0,16.59,13.5,30.09,30.09,30.09v-10.67c-10.08,0-18.38-7.72-19.32-17.56,5.22,4.39,11.95,7.04,19.28,7.05.02,0,.04-.02.04-.04v-10.59s-.02-.04-.04-.04c-6.78-.01-12.76-3.53-16.22-8.82,3.47-5.31,9.46-8.83,16.26-8.83h22.95v-10.67h-22.95c-7.34,0-14.08,2.65-19.3,7.03.98-9.96,9.68-17.54,19.82-17.54Z"/>
    <g>
      <g>
        <path class="cls-1" d="M88.26,18.91h-4.41c-1.27-2.63-3.73-4.38-7.42-4.38-5.16,0-8.28,3.76-8.28,8.55s3.11,8.55,8.28,8.55c3.69,0,6.16-1.74,7.42-4.38h4.41c-1.44,4.55-5.75,8.28-11.8,8.28-7.69,0-12.76-5.54-12.76-12.45s5.06-12.45,12.76-12.45c6.05,0,10.36,3.73,11.8,8.27Z"/>
        <path class="cls-1" d="M91.03,26.53c0-4.65,3.49-8.96,9.37-8.96s9.37,4.31,9.37,8.96-3.49,8.92-9.37,8.92-9.37-4.31-9.37-8.92ZM95.23,26.53c0,2.77,1.85,5.33,5.16,5.33s5.16-2.56,5.16-5.33-1.85-5.37-5.16-5.37-5.16,2.6-5.16,5.37Z"/>
        <path class="cls-1" d="M113.76,35.05V11.11h15.52v3.9h-11.08v6.36h10.77v3.86h-10.77v9.81h-4.45Z"/>
        <path class="cls-1" d="M131.68,26.53c0-4.65,3.49-8.96,9.37-8.96s9.37,4.31,9.37,8.96-3.49,8.92-9.37,8.92-9.37-4.31-9.37-8.92ZM135.88,26.53c0,2.77,1.85,5.33,5.16,5.33s5.16-2.56,5.16-5.33-1.85-5.37-5.16-5.37-5.16,2.6-5.16,5.37Z"/>
        <path class="cls-1" d="M165.69,17.98h4.31v17.06h-4.14v-2.87c-.85,1.95-2.97,3.28-5.64,3.28-4.1,0-6.33-3.01-6.33-7.21v-10.26h4.31v9.57c0,2.46.96,4.21,3.59,4.21,2.46,0,3.9-1.71,3.9-4.17v-9.61Z"/>
        <path class="cls-1" d="M179.03,35.05h-4.31v-17.06h4.17v2.91c.79-1.98,3.01-3.32,5.68-3.32,4.1,0,6.39,3.01,6.39,7.25v10.22h-4.31v-9.51c0-2.43-1.09-4.21-3.66-4.21-2.36,0-3.97,1.71-3.97,4.17v9.54Z"/>
        <path class="cls-1" d="M209.11,10.08h4.31v24.96h-4.14v-2.94c-.99,1.74-3.25,3.35-6.22,3.35-5.06,0-8.62-4.04-8.62-8.92s3.56-8.96,8.62-8.96c2.97,0,5.2,1.54,6.05,3.35v-10.84ZM203.88,31.9c2.84,0,5.23-2.09,5.23-5.37s-2.39-5.4-5.23-5.4c-3.08,0-5.13,2.43-5.13,5.4s2.05,5.37,5.13,5.37Z"/>
        <path class="cls-1" d="M221.32,27.97c.27,2.56,1.91,4.31,4.96,4.31,2.09,0,3.69-.92,4.51-2.22h4c-1.16,3.04-4.45,5.4-8.51,5.4-5.81,0-9.2-3.86-9.2-8.96s3.73-8.92,8.99-8.92,8.96,3.73,8.96,8.99v1.4h-13.71ZM221.28,25.13h9.64c-.27-2.63-2.02-4.48-4.79-4.48s-4.51,1.71-4.86,4.48Z"/>
        <path class="cls-1" d="M249.01,22.12h-.92c-3.45,0-5.06,2.02-5.06,5.33v7.59h-4.31v-17.06h4.17v3.69c.82-2.7,3.11-3.83,6.12-3.83v4.27Z"/>
      </g>
      <g>
        <path class="cls-1" d="M88.26,55.1h-4.41c-1.27-2.63-3.73-4.38-7.42-4.38-5.16,0-8.27,3.76-8.27,8.55s3.11,8.55,8.27,8.55c3.69,0,6.16-1.74,7.42-4.38h4.41c-1.44,4.55-5.75,8.28-11.8,8.28-7.69,0-12.75-5.54-12.75-12.45s5.06-12.45,12.75-12.45c6.05,0,10.36,3.73,11.8,8.27Z"/>
        <path class="cls-1" d="M94.38,46.24c1.47,0,2.56,1.13,2.56,2.53s-1.09,2.53-2.56,2.53-2.56-1.09-2.56-2.53,1.13-2.53,2.56-2.53ZM92.22,71.24v-17.06h4.31v17.06h-4.31Z"/>
        <path class="cls-1" d="M111.68,58.31h-.92c-3.45,0-5.06,2.02-5.06,5.33v7.59h-4.31v-17.06h4.17v3.69c.82-2.7,3.11-3.83,6.12-3.83v4.27Z"/>
        <path class="cls-1" d="M131.47,60.26h-4.17c-.72-1.57-2.19-2.91-4.72-2.91-3.25,0-5.06,2.5-5.06,5.37s1.81,5.33,5.06,5.33c2.53,0,4-1.26,4.72-2.91h4.17c-.89,3.56-4.21,6.5-8.86,6.5-5.68,0-9.37-3.9-9.37-8.92s3.69-8.96,9.37-8.96c4.65,0,7.97,2.94,8.86,6.5Z"/>
        <path class="cls-1" d="M135.06,71.24v-24.96h4.31v24.96h-4.31Z"/>
        <path class="cls-1" d="M147.27,64.16c.27,2.56,1.91,4.31,4.96,4.31,2.09,0,3.69-.92,4.51-2.22h4c-1.16,3.04-4.45,5.4-8.51,5.4-5.81,0-9.2-3.86-9.2-8.96s3.73-8.92,8.99-8.92,8.96,3.73,8.96,8.99v1.4h-13.71ZM147.23,61.32h9.64c-.27-2.63-2.02-4.48-4.79-4.48s-4.51,1.71-4.86,4.48Z"/>
      </g>
    </g>
  </g>
</svg>